<svg width="145" height="16" viewBox="0 0 145 16" fill="none" xmlns="http://www.w3.org/2000/svg">
<path d="M74.3923 4.73755H77.5412L77.3639 6.15559H74.2291L73.4482 12.9396C73.3837 13.5681 74.2764 14.4898 76.3004 13.6648L76.526 15.0345C76.1553 15.1902 75.1402 15.5018 74.0444 15.5018C72.6747 15.5018 71.45 14.6155 71.45 12.9396C71.45 12.9396 71.8444 9.27718 72.159 7.15467C72.2054 6.84224 72.2583 6.50447 72.3149 6.15559H70.5315L70.7088 4.73755H72.5533C72.8261 3.16102 73.0937 1.74033 73.0937 1.74033H74.7373L74.3923 4.73755ZM39.6407 4.35081C44.1527 4.27347 44.8187 8.61568 44.5878 10.7965H37.6909C37.6909 12.9074 38.271 13.4392 39.6407 13.4392C40.7365 13.4392 41.3005 12.526 41.4455 12.0695H44.2816C44.1581 13.2082 43.0569 15.4857 39.6407 15.4857C34.6937 15.4857 34.4198 11.4088 34.4198 9.60402C34.4198 7.79923 35.5478 4.4475 39.6407 4.35081ZM59.3 4.35081C63.8119 4.27347 64.478 8.61568 64.247 10.7965H57.3502C57.3502 12.9074 57.9303 13.4392 59.3 13.4392C60.3957 13.4392 60.9597 12.526 61.1048 12.0695H63.9408C63.8173 13.2082 62.7162 15.4857 59.3 15.4857C54.3529 15.4857 54.079 11.4088 54.079 9.60402C54.079 7.79923 55.207 4.4475 59.3 4.35081ZM133.326 12.3307L135.069 4.67313L137.969 4.6731L139.742 12.2893L141.612 4.60134H144.189L141.015 15.4696H140.482L140.484 15.4769H138.354L136.463 7.1288L134.521 15.4696H131.72L128.865 4.60134H131.496L133.326 12.3307ZM5.94951 10.759L8.71774 0H12.3434L14.7942 10.8926L17.444 0H20.8033L17.0402 15.4696H13.0847L10.4682 3.84102L7.47695 15.4598L7.08817 15.4612L7.09021 15.4696H3.74606L0 0H3.34415L5.94951 10.759ZM25.3636 6.05891C25.7181 5.5164 26.7849 4.43138 28.2158 4.43138C30.0045 4.43138 32.1638 5.39823 32.1638 7.92815V15.4696H29.0054V7.92815C29.0054 7.46084 28.3737 6.59068 27.3296 6.59068C26.0243 6.59068 25.3636 7.83146 25.3636 8.65328V15.4696H22.2053V0H25.3636V6.05891ZM97.9094 15.4696H94.751V0.193369H97.9094V15.4696ZM101.164 9.28173L104.838 15.4696H101.164L97.9094 9.28173L101.164 4.6731H104.661L101.164 9.28173ZM110.849 4.57641C112.238 4.57641 113.57 5.12816 114.552 6.11031C115.5 7.05821 116.047 8.3321 116.084 9.66847H116.086V15.4696H112.251V9.69242C112.223 9.36357 112.079 9.05364 111.844 8.81842C111.58 8.55451 111.222 8.40625 110.849 8.40625C110.476 8.40625 110.118 8.55451 109.854 8.81842C109.619 9.05364 109.476 9.36357 109.447 9.69242V15.4696H105.612V9.66847H105.614C105.651 8.3321 106.198 7.05821 107.146 6.11031C108.128 5.12816 109.46 4.57641 110.849 4.57641ZM122.935 4.31858C125.987 4.31858 128.462 6.81482 128.462 9.89407C128.462 12.9733 125.987 15.4696 122.935 15.4696C119.882 15.4696 117.408 12.9733 117.408 9.89407C117.408 6.81482 119.882 4.31858 122.935 4.31858ZM49.5026 6.20372C50.5179 4.70532 52.3548 4.89863 52.8865 4.89863V7.6058C52.8839 7.60553 49.6809 7.25248 49.5026 9.81215V15.4695H46.3442V4.89866H49.5026V6.20372ZM83.3717 4.38304C87.4582 4.38304 88.1665 8.12152 87.8514 10.0874C86.7234 14.9378 83.3718 15.7596 80.4389 15.2923C78.9409 15.0536 76.8722 13.8743 77.071 10.8448C77.2159 8.63716 78.2635 4.38305 83.3717 4.38304ZM82.9482 5.89777C80.9315 5.89778 79.3521 7.68644 79.0945 9.95853C78.9456 11.2715 79.0139 13.7937 81.8822 13.7937C83.7998 13.7937 85.2662 12.5529 85.7496 10.0552C85.9911 8.80771 85.943 5.89777 82.9482 5.89777ZM122.935 6.44565C121.372 6.44565 120.63 7.98956 120.63 9.89407C120.63 11.7986 121.404 13.3425 122.935 13.3425C124.756 13.3425 125.239 11.7986 125.239 9.89407C125.239 7.98956 124.739 6.44565 122.935 6.44565ZM39.5118 6.47788C38.0809 6.47788 37.7124 7.89591 37.707 8.60494H41.3005C41.3005 7.89591 40.9427 6.47788 39.5118 6.47788ZM59.1711 6.47788C57.7401 6.47788 57.3717 7.89591 57.3663 8.60494H60.9597C60.9597 7.89591 60.602 6.47788 59.1711 6.47788Z" fill="#232323"/>
</svg>
